<?xml version="1.0" standalone="no"?>
<!DOCTYPE svg PUBLIC "-//W3C//DTD SVG 20010904//EN"
 "http://www.w3.org/TR/2001/REC-SVG-20010904/DTD/svg10.dtd">
<svg version="1.0" xmlns="http://www.w3.org/2000/svg"
 width="534.000000pt" height="534.000000pt" viewBox="0 0 534.000000 534.000000"
 preserveAspectRatio="xMidYMid meet">
<metadata>
Created by potrace 1.11, written by Peter Selinger 2001-2013
</metadata>
<g transform="translate(0.000000,534.000000) scale(0.100000,-0.100000)"
fill="#000000" stroke="none">
<path d="M890 4330 c-465 -550 -855 -1012 -867 -1028 l-22 -28 59 -169 c119
-339 848 -2376 851 -2379 13 -11 2652 -497 2658 -490 26 28 1672 1976 1699
2009 l32 40 -454 1270 c-250 698 -460 1273 -467 1277 -11 6 -2485 472 -2619
494 -22 3 -113 -101 -870 -996z m2158 314 c625 -207 1138 -377 1140 -378 1 -2
-161 -69 -360 -150 -200 -81 -811 -328 -1358 -549 -547 -222 -996 -398 -998
-392 -2 8 373 1657 414 1819 3 14 10 26 15 26 5 0 521 -169 1147 -376z m-1552
-542 c-112 -485 -205 -884 -207 -886 -7 -7 -960 150 -960 157 0 10 1362 1619
1366 1615 2 -2 -88 -401 -199 -886z m1954 722 c432 -81 790 -151 796 -156 14
-10 98 -247 91 -254 -4 -4 -1676 543 -1686 552 -9 8 35 0 799 -142z m1320
-1601 l322 -902 -576 -680 c-317 -374 -580 -682 -585 -685 -5 -4 -7 2 -5 11 2
10 116 713 254 1563 254 1567 260 1604 265 1598 1 -2 148 -409 325 -905z
m-530 839 c0 -24 -488 -3030 -497 -3066 -8 -29 -24 -15 -1081 989 -589 560
-1072 1021 -1072 1024 0 6 2627 1070 2643 1071 4 0 7 -8 7 -18z m-3490 -947
c267 -43 486 -79 488 -80 2 -2 -50 -456 -115 -1009 -64 -553 -121 -1000 -124
-993 -4 7 -176 485 -382 1062 -207 578 -380 1063 -386 1079 -11 26 -10 28 11
23 13 -3 241 -40 508 -82z m1814 -1290 l958 -910 -118 -2 c-157 -3 -2211 41
-2218 48 -4 4 195 1749 219 1917 l6 43 98 -93 c53 -51 528 -502 1055 -1003z
m295 -1085 c474 -10 865 -21 867 -23 4 -4 -219 -272 -235 -281 -4 -3 -399 68
-877 158 l-869 164 125 1 c69 0 514 -8 989 -19z"/>
<path d="M2148 4582 l-68 -57 0 -192 0 -193 90 0 89 0 3 83 3 82 189 -223 188
-222 50 42 c28 24 59 50 69 58 19 15 9 29 -246 330 -147 173 -274 323 -283
332 -16 16 -21 13 -84 -40z"/>
<path d="M1068 4113 c-66 -4 -64 -1 -52 -121 6 -58 8 -61 36 -64 l29 -3 -81
-109 -80 -109 72 -53 c40 -29 76 -50 80 -46 3 4 72 97 152 206 l146 199 -73
53 c-78 58 -72 56 -229 47z"/>
<path d="M4626 2609 c-43 -16 -81 -30 -82 -32 -2 -2 4 -22 13 -45 9 -23 14
-45 11 -48 -3 -3 -56 2 -118 11 -62 8 -114 14 -115 13 -4 -6 -25 -172 -22
-175 5 -4 439 -64 442 -61 1 2 7 43 14 91 12 88 12 89 -20 175 -18 48 -35 90
-38 94 -3 3 -42 -7 -85 -23z"/>
<path d="M3196 3197 l-219 -10 7 -60 c3 -33 6 -84 6 -114 l0 -54 155 7 c85 4
155 4 155 0 0 -6 -109 -122 -472 -502 l-49 -50 100 -67 c56 -37 104 -68 109
-69 5 -2 158 155 342 347 183 193 353 371 377 396 l44 46 -108 71 c-125 83
-70 76 -447 59z"/>
<path d="M736 2784 c-38 -8 -70 -15 -72 -17 -4 -3 55 -389 60 -394 3 -3 158
26 163 30 1 2 -4 44 -12 93 -8 49 -15 92 -15 96 0 4 19 1 41 -7 23 -8 43 -15
44 -15 2 0 13 31 24 70 12 38 24 76 27 84 4 10 -19 22 -88 45 -51 17 -95 30
-98 30 -3 -1 -36 -8 -74 -15z"/>
<path d="M1898 1671 l-167 -139 -5 36 c-3 21 -8 66 -12 101 l-6 63 -37 -6
c-20 -3 -54 -6 -76 -6 -68 0 -67 2 -49 -175 l16 -159 56 -67 c47 -56 59 -65
72 -56 8 7 122 101 253 211 l237 198 -42 50 c-24 28 -50 59 -58 69 -15 19 -23
14 -182 -120z"/>
</g>
</svg>
